<?xml version="1.0" encoding="UTF-8"?>
<svg id="Layer_1" data-name="Layer 1" xmlns="http://www.w3.org/2000/svg" viewBox="0 0 120 120">
  <defs>
    <style>
      .cls-1 {
        fill: #000000;
      }
    </style>
  </defs>
  <path class="cls-1" d="M97.34,60c0-1.21-1.32-1.65-2.97-1.76l-25.04-2.2,16.04-19c1.1-1.31,1.76-2.52.87-3.41s-2.08-.21-3.3.89l-19,15.93-2.2-24.83c-.11-1.65-.44-2.96-1.76-2.96s-1.65,1.31-1.76,2.96l-2.2,25.04-19.22-16.14c-1.31-1.1-2.52-1.76-3.41-.89-.87.89-.21,2.1.89,3.41l16.04,19.11-24.71,2.08c-1.65.11-2.97.55-2.97,1.76,0,1.32,1.32,1.65,2.97,1.76l24.81,2.2-16.14,19.11c-1.1,1.31-1.76,2.52-.89,3.39.89.89,2.1.22,3.41-.87l19.22-16.14,2.2,24.93c.11,1.65.44,2.96,1.76,2.96s1.65-1.31,1.76-2.96l2.2-24.71,19,15.93c1.21,1.1,2.42,1.76,3.3.87.89-.87.22-2.08-.87-3.39l-16.04-19.11,25.04-2.2c1.65-.11,2.97-.44,2.97-1.76"/>
</svg>
